<?xml version="1.0" standalone="no"?><!DOCTYPE svg PUBLIC "-//W3C//DTD SVG 1.1//EN" "http://www.w3.org/Graphics/SVG/1.1/DTD/svg11.dtd"><svg t="1581651694384" class="icon" viewBox="0 0 1024 1024" version="1.1" xmlns="http://www.w3.org/2000/svg" p-id="6124" xmlns:xlink="http://www.w3.org/1999/xlink" width="128" height="128"><defs><style type="text/css"></style></defs><path d="M570.966881 398.878092c-0.466013-1.459451-1.271601-2.745502-2.315614-3.789515-1.347463-1.343851-3.10314-2.272264-5.057504-2.604614l-247.998307-30.13911c-4.313328-0.729726-8.561631 1.614789-10.237832 5.657179-1.477514 3.561928-0.617738 7.600706 2.041064 10.24867 0.357638 0.357638 0.758626 0.693601 1.177676 0.997051l158.458816 119.978438c3.742553 2.658802 8.854244 2.228914 12.094659-1.022338l89.539491-89.839328C571.151118 405.879122 572.036181 402.22327 570.966881 398.878092z" p-id="6125" fill="#707070"></path><path d="M689.164355 734.262838l-26.255669-217.494334c-0.256488-2.131377-1.228251-4.064065-2.694927-5.523517-0.986213-0.982601-2.196402-1.752064-3.56554-2.225302-3.399365-1.166838-7.167205-0.296225-9.706795 2.250589l-76.819869 77.079969c-3.265702 3.27654-3.655853 8.449644-0.913963 12.181359l103.068313 140.417978c0.289 0.397375 0.6069 0.762238 0.946476 1.101813 2.611839 2.601002 6.563917 3.46439 10.07527 2.073577C687.264178 742.549919 689.673718 738.503916 689.164355 734.262838z" p-id="6126" fill="#707070"></path><path d="M471.113695 730.032597l-20.68519-143.405518c1.202963-2.250589 1.459451-4.927454 0.62135-7.42008-0.469625-1.405264-1.257151-2.647964-2.272264-3.663078-0.357638-0.357638-0.751401-0.689988-1.163226-0.982601-0.296225-0.415438-0.628575-0.801976-0.986213-1.159613-1.015113-1.011501-2.265039-1.791801-3.670303-2.257814-2.489014-0.823651-5.165879-0.556325-7.409243 0.646638l-143.470543-20.204727c-4.266366-0.603288-8.391844 1.773739-10.006632 5.765554-1.434164 3.540253-0.574388 7.542906 2.073577 10.17642 0.335963 0.33235 0.697213 0.643025 1.087363 0.932026l97.512284 71.20604 71.52394 97.270246c0.289 0.397375 0.6069 0.758626 0.942863 1.090976 2.640739 2.629902 6.647005 3.47884 10.180032 2.030226C469.365244 738.428053 471.727821 734.29535 471.113695 730.032597z" p-id="6127" fill="#707070"></path><path d="M375.274 583.314415l275.460552-276.385352c17.563988-17.6254 46.095534-17.675975 63.724547-0.104763l0 0c17.6254 17.563988 17.675975 46.095534 0.104763 63.724547l-275.460552 276.385352" p-id="6128" fill="#707070"></path><path d="M375.274 583.314415l275.460552-276.385352c17.563988-17.6254 46.095534-17.675975 63.724547-0.104763l0 0c17.6254 17.563988 17.675975 46.095534 0.104763 63.724547l-275.460552 276.385352" p-id="6129" fill="#707070"></path><path d="M832.95641 832.598772c-6.889043 6.733705-14.139335 13.344585-21.386016 19.709814-44.711945 38.664616-95.637395 67.528512-150.952036 86.248501-57.511042 19.424427-117.565286 27.140732-178.822493 22.560079-61.134382-4.457828-119.458237-20.804403-173.522952-48.537586-52.124801-26.739745-98.064997-62.893671-136.729613-107.605616s-67.528512-95.637395-86.248501-150.952036c-19.424427-57.511042-27.140732-117.565286-22.560079-178.822493 4.457828-61.134382 20.804403-119.458237 48.537586-173.522952C133.53616 258.261427 162.562619 218.809285 197.491907 184.656685c6.889043-6.733705 14.139335-13.344585 21.386016-19.709814 44.58912-38.545403 95.637395-67.528512 151.074861-86.367713 57.511042-19.424427 117.565286-27.140732 178.822493-22.560079 72.315078 5.313991 140.790066 27.856008 203.730699 66.394186l0.119213 0.122825 0.119213 0.122825c10.400395 5.469329 16.59945 16.487462 15.862499 28.033021-0.567163 7.047993-3.561928 13.82866-8.604981 18.756114-6.025654 5.891992-14.207973 8.843406-22.719029 8.258181-2.554039-0.151725-4.732378-0.903126-6.55308-1.531701l-0.364863-0.126438-1.336626-0.137275-1.932689-1.239088c-53.508389-33.567375-113.988908-53.100176-179.620857-57.731405-104.769802-7.503168-206.230551 26.024469-285.333521 94.470557-6.26408 5.404304-12.531772 11.050646-18.434601 16.823425C209.637141 261.545192 182.200183 300.162845 162.378381 342.877076c-19.944627 42.837056-31.894786 88.925365-35.474776 136.689875-7.741593 104.524152 25.663219 205.858463 94.351344 285.210696 68.442475 79.348621 164.000395 127.376843 268.520934 135.118436 104.401326 7.864418 205.858463-25.663219 285.333521-94.228519 6.26408-5.404304 12.531772-11.050646 18.434601-16.823425 34.069512-33.310887 61.50647-71.92854 81.328272-114.642771 19.944627-42.837056 31.894786-88.925365 35.474776-136.689875 6.047329-83.618599-14.31996-165.470684-59.248656-237.254724l-0.119213-0.364863-0.242038-0.24565c-4.197728-5.277866-6.314655-11.870684-6.23518-18.925901 0.003613-0.242038 0.007225-0.487688 0.007225-0.487688 0.003613-0.242038 0.007225-0.487688 0.007225-0.729726 0.567163-7.047993 3.68114-13.702223 8.847019-18.756114 5.411529-5.292316 12.502872-8.373781 19.922952-8.413519 7.542906-0.15895 15.049686 2.846652 21.068115 8.753094 0.599675 0.614125 1.080138 1.351076 1.560601 1.842376 54.51989 84.301362 79.345008 180.798532 71.917703 279.000804-4.454216 60.892345-20.80079 119.2162-48.537586 173.522952C896.915769 758.994031 867.885698 798.446172 832.95641 832.598772z" p-id="6130" fill="#707070"></path></svg>